<svg width="80" height="80" viewBox="0 0 80 80" fill="none" xmlns="http://www.w3.org/2000/svg">
<path d="M40 0.5C61.8152 0.5 79.5 18.1848 79.5 40C79.5 61.8152 61.8152 79.5 40 79.5C18.1848 79.5 0.5 61.8152 0.5 40C0.5 18.1848 18.1848 0.5 40 0.5Z" fill="#7289DA" stroke="#8A13E8"/>
<path d="M36.38 39.28C35.24 39.28 34.34 40.28 34.34 41.5C34.34 42.72 35.26 43.72 36.38 43.72C37.52 43.72 38.42 42.72 38.42 41.5C38.44 40.28 37.52 39.28 36.38 39.28ZM43.68 39.28C42.54 39.28 41.64 40.28 41.64 41.5C41.64 42.72 42.56 43.72 43.68 43.72C44.82 43.72 45.72 42.72 45.72 41.5C45.72 40.28 44.82 39.28 43.68 39.28Z" fill="white"/>
<path d="M53.4 22.5H26.6C24.34 22.5 22.5 24.34 22.5 26.62V53.66C22.5 55.94 24.34 57.78 26.6 57.78H49.28L48.22 54.08L50.78 56.46L53.2 58.7L57.5 62.5V26.62C57.5 24.34 55.66 22.5 53.4 22.5ZM45.68 48.62C45.68 48.62 44.96 47.76 44.36 47C46.98 46.26 47.98 44.62 47.98 44.62C47.16 45.16 46.38 45.54 45.68 45.8C44.68 46.22 43.72 46.5 42.78 46.66C40.86 47.02 39.1 46.92 37.6 46.64C36.46 46.42 35.48 46.1 34.66 45.78C34.2 45.6 33.7 45.38 33.2 45.1C33.14 45.06 33.08 45.04 33.02 45C32.98 44.98 32.96 44.96 32.94 44.94C32.58 44.74 32.38 44.6 32.38 44.6C32.38 44.6 33.34 46.2 35.88 46.96C35.28 47.72 34.54 48.62 34.54 48.62C30.12 48.48 28.44 45.58 28.44 45.58C28.44 39.14 31.32 33.92 31.32 33.92C34.2 31.76 36.94 31.82 36.94 31.82L37.14 32.06C33.54 33.1 31.88 34.68 31.88 34.68C31.88 34.68 32.32 34.44 33.06 34.1C35.2 33.16 36.9 32.9 37.6 32.84C37.72 32.82 37.82 32.8 37.94 32.8C39.16 32.64 40.54 32.6 41.98 32.76C43.88 32.98 45.92 33.54 48 34.68C48 34.68 46.42 33.18 43.02 32.14L43.3 31.82C43.3 31.82 46.04 31.76 48.92 33.92C48.92 33.92 51.8 39.14 51.8 45.58C51.8 45.58 50.1 48.48 45.68 48.62Z" fill="white"/>
</svg>
