<svg width="80" height="80" viewBox="0 0 80 80" fill="none" xmlns="http://www.w3.org/2000/svg">
<path d="M40 79.5C18.1848 79.5 0.5 61.8152 0.5 40C0.5 18.1848 18.1848 0.5 40 0.5C61.8152 0.5 79.5 18.1848 79.5 40C79.5 61.8152 61.8152 79.5 40 79.5Z" fill="#231E1B" stroke="#8A13E8"/>
<path fill-rule="evenodd" clip-rule="evenodd" d="M39.8777 0C17.8593 0 0 17.8593 0 39.8777C0 57.4924 11.4985 72.4159 27.156 77.7982C29.1131 78.0428 29.8471 76.8196 29.8471 75.841C29.8471 74.8624 29.8471 72.4159 29.8471 68.9908C18.8379 71.4373 16.3914 63.6086 16.3914 63.6086C14.6789 58.9603 11.9878 57.737 11.9878 57.737C8.31804 55.2905 12.2324 55.2905 12.2324 55.2905C16.1468 55.5352 18.3486 59.4496 18.3486 59.4496C22.0183 65.5658 27.6453 63.8532 29.8471 62.8746C30.0917 60.1835 31.315 58.471 32.2936 57.4924C23.4862 56.5138 14.1896 53.0887 14.1896 37.6758C14.1896 33.2722 15.6575 29.8471 18.3486 26.9113C18.104 26.1774 16.6361 22.0184 18.8379 16.6361C18.8379 16.6361 22.263 15.6575 29.8471 20.7951C33.0275 19.8165 36.4526 19.5719 39.8777 19.5719C43.3027 19.5719 46.7278 20.0612 49.9083 20.7951C57.4924 15.6575 60.9174 16.6361 60.9174 16.6361C63.1193 22.0184 61.6514 26.1774 61.4067 27.156C63.8532 29.8471 65.5657 33.5168 65.5657 37.9205C65.5657 53.3333 56.2691 56.5138 47.4618 57.4924C48.9297 58.7156 50.1529 61.1621 50.1529 64.8318C50.1529 70.2141 50.1529 74.3731 50.1529 75.841C50.1529 76.8196 50.8868 78.0428 52.844 77.7982C68.7462 72.4159 80 57.4924 80 39.8777C79.7554 17.8593 61.896 0 39.8777 0Z" fill="white"/>
</svg>
