<svg width="80" height="80" viewBox="0 0 80 80" fill="none" xmlns="http://www.w3.org/2000/svg">
<path d="M40 79.5C18.1848 79.5 0.5 61.8152 0.5 40C0.5 18.1848 18.1848 0.5 40 0.5C61.8152 0.5 79.5 18.1848 79.5 40C79.5 61.8152 61.8152 79.5 40 79.5Z" fill="#2867B2" stroke="#8A13E8"/>
<path d="M29 60H20.5V33.25H29V60ZM24.75 29.5C22 29.5 20 27.5 20 24.75C20 22 22.25 20 24.75 20C27.5 20 29.5 22 29.5 24.75C29.5 27.5 27.5 29.5 24.75 29.5ZM60 60H51.5V45.5C51.5 41.25 49.75 40 47.25 40C44.75 40 42.25 42 42.25 45.75V60H33.75V33.25H41.75V37C42.5 35.25 45.5 32.5 49.75 32.5C54.5 32.5 59.5 35.25 59.5 43.5V60H60Z" fill="white"/>
</svg>
